<?xml version="1.0" encoding="UTF-8" standalone="no"?>
<!-- Created with Inkscape (http://www.inkscape.org/) -->

<svg
   xmlns:dc="http://purl.org/dc/elements/1.1/"
   xmlns:cc="http://creativecommons.org/ns#"
   xmlns:rdf="http://www.w3.org/1999/02/22-rdf-syntax-ns#"
   xmlns:svg="http://www.w3.org/2000/svg"
   xmlns="http://www.w3.org/2000/svg"
   xmlns:sodipodi="http://sodipodi.sourceforge.net/DTD/sodipodi-0.dtd"
   xmlns:inkscape="http://www.inkscape.org/namespaces/inkscape"
   id="svg2"
   sodipodi:docname="Startright-Attitude-Indicator-raph.svg"
   viewBox="0 0 281.25 281.25"
   sodipodi:version="0.32"
   version="1.0"
   inkscape:output_extension="org.inkscape.output.svg.inkscape"
   inkscape:version="0.91 r13725">
  <defs
     id="defs49" />
  <sodipodi:namedview
     id="base"
     bordercolor="#666666"
     inkscape:pageshadow="2"
     guidetolerance="10"
     pagecolor="#ffffff"
     gridtolerance="10000"
     inkscape:zoom="3.5768886"
     objecttolerance="10"
     showgrid="false"
     borderopacity="1.0"
     inkscape:current-layer="layer1"
     inkscape:cx="161.11117"
     inkscape:cy="140.67357"
     showguides="true"
     inkscape:guide-bbox="true"
     inkscape:pageopacity="0.0"
     inkscape:document-units="px"
     inkscape:window-width="2560"
     inkscape:window-height="1315"
     inkscape:window-x="0"
     inkscape:window-y="1"
     inkscape:window-maximized="1">
    <inkscape:grid
       id="grid4137"
       visible="true"
       type="xygrid"
       enabled="true" />
  </sodipodi:namedview>
  <g
     id="layer1"
     inkscape:label="Layer 1"
     inkscape:groupmode="layer"
     transform="translate(-504.72 -218.13)">
    <g
       transform="matrix(0.95060463,0,0,0.95060463,-27.732891,76.29978)"
       id="g4131">
      <path
         sodipodi:start="0"
         sodipodi:end="3.1415927"
         sodipodi:cx="343.20062"
         sodipodi:cy="668.64954"
         transform="matrix(0.96232,0,0,0.96232,377.79,-345.85)"
         d="m 483.73537,668.64954 a 140.53474,140.53474 0 0 1 -70.26738,121.70666 140.53474,140.53474 0 0 1 -140.53474,-10e-6 140.53474,140.53474 0 0 1 -70.26737,-121.70666 l 140.53474,10e-6 z"
         sodipodi:type="arc"
         style="fill:#7d5233;fill-rule:evenodd;stroke:#000000;stroke-linecap:square"
         sodipodi:ry="140.53474"
         sodipodi:rx="140.53474"
         id="path4133" />
      <path
         sodipodi:start="3.1415927"
         sodipodi:end="6.2831853"
         sodipodi:cx="343.20062"
         sodipodi:cy="668.64954"
         transform="matrix(0.96232,0,0,0.96232,377.79,-345.91)"
         d="M 202.66588,668.64953 A 140.53474,140.53474 0 0 1 343.20063,528.11479 140.53474,140.53474 0 0 1 483.73537,668.64954 l -140.53475,0 z"
         sodipodi:type="arc"
         style="fill:#5b93c5;fill-rule:evenodd;stroke:#000000;stroke-linecap:square"
         sodipodi:ry="140.53474"
         sodipodi:rx="140.53474"
         id="path4135" />
    </g>
    <g
       transform="matrix(0.69155,0,0,0.69155,155.68,153.23078)"
       id="g4123">
      <path
         sodipodi:start="0"
         sodipodi:end="3.1415927"
         sodipodi:cx="343.20062"
         sodipodi:cy="668.64954"
         transform="matrix(0.96232,0,0,0.96232,377.79,-345.85)"
         d="m 483.73537,668.64954 a 140.53474,140.53474 0 0 1 -70.26738,121.70666 140.53474,140.53474 0 0 1 -140.53474,-10e-6 140.53474,140.53474 0 0 1 -70.26737,-121.70666 l 140.53474,10e-6 z"
         sodipodi:type="arc"
         style="fill:#7d5233;fill-rule:evenodd;stroke:#000000;stroke-linecap:square"
         sodipodi:ry="140.53474"
         sodipodi:rx="140.53474"
         id="path4097" />
      <path
         sodipodi:start="3.1415927"
         sodipodi:end="6.2831853"
         sodipodi:cx="343.20062"
         sodipodi:cy="668.64954"
         transform="matrix(0.96232,0,0,0.96232,377.79,-345.91)"
         d="M 202.66588,668.64953 A 140.53474,140.53474 0 0 1 343.20063,528.11479 140.53474,140.53474 0 0 1 483.73537,668.64954 l -140.53475,0 z"
         sodipodi:type="arc"
         style="fill:#5b93c5;fill-rule:evenodd;stroke:#000000;stroke-linecap:square"
         sodipodi:ry="140.53474"
         sodipodi:rx="140.53474"
         id="path4099" />
    </g>
    <path
       inkscape:connector-curvature="0"
       d="m 639.31549,352.77455 12.05372,-0.0622"
       style="fill:none;stroke:#ffffff;stroke-width:1.03732502;stroke-linecap:square"
       id="path4155" />
    <path
       inkscape:connector-curvature="0"
       d="m 639.31549,338.66002 12.05372,-0.0692"
       style="fill:none;stroke:#ffffff;stroke-width:1.03732502;stroke-linecap:square"
       id="path4157" />
    <path
       inkscape:connector-curvature="0"
       d="m 636.93656,345.63776 16.80467,0.0899"
       style="fill:none;stroke:#ffffff;stroke-width:1.4461695;stroke-linecap:square"
       id="path4159" />
    <path
       inkscape:connector-curvature="0"
       d="m 627.79427,349.68333 -0.0622,-7.39267 0.94742,-0.007 0.0622,7.39267 -0.94742,0.007 z m 4.50891,0.0968 c -0.55324,0.007 -0.96126,-0.30428 -1.22405,-0.92667 -0.25587,-0.61548 -0.39418,-1.56982 -0.40801,-2.85611 -0.0208,-2.53798 0.49791,-3.81044 1.5629,-3.81735 0.54632,-0.007 0.95434,0.29737 1.22404,0.89901 0.26971,0.60165 0.41493,1.56982 0.42185,2.89068 0.0138,1.26554 -0.10373,2.21988 -0.35269,2.84919 -0.24204,0.63622 -0.65697,0.95434 -1.22404,0.96125 z m 0.60164,-3.80352 c -0.007,-1.14106 -0.0691,-1.9156 -0.16597,-2.33053 -0.10373,-0.40801 -0.2697,-0.60856 -0.48408,-0.60856 -0.21438,0 -0.37344,0.18672 -0.47026,0.54633 -0.10373,0.3596 -0.15214,1.1618 -0.13831,2.40659 0.0138,1.94325 0.23513,2.91834 0.65698,2.91142 0.41493,0 0.61547,-0.97508 0.60164,-2.92525 z"
       style="fill:#ffffff"
       id="text4161" />
    <path
       inkscape:connector-curvature="0"
       d="m 656.86012,349.68333 -0.0622,-7.39267 0.94742,-0.007 0.0691,7.39267 -0.95433,0.007 z m 4.5089,0.0968 c -0.55324,0.007 -0.96125,-0.30428 -1.21713,-0.92667 -0.26279,-0.61548 -0.4011,-1.56982 -0.40801,-2.85611 -0.0277,-2.53798 0.49792,-3.81044 1.55599,-3.81735 0.54632,-0.007 0.96125,0.29737 1.23096,0.89901 0.2697,0.60165 0.40801,1.56982 0.42184,2.89068 0.007,1.26554 -0.11065,2.21988 -0.35269,2.84919 -0.24896,0.63622 -0.65697,0.95434 -1.23096,0.96125 z m 0.60165,-3.80352 c -0.007,-1.14106 -0.0622,-1.9156 -0.16597,-2.33053 -0.10373,-0.40801 -0.26279,-0.60856 -0.48409,-0.60856 -0.21438,0 -0.37343,0.18672 -0.47025,0.54633 -0.10373,0.3596 -0.14523,1.1618 -0.13831,2.40659 0.0208,1.94325 0.23513,2.91834 0.65697,2.91142 0.42185,0 0.6224,-0.97508 0.60165,-2.92525 z"
       style="fill:#ffffff"
       id="text4165" />
    <path
       inkscape:connector-curvature="0"
       d="m 645.32506,230.49468 c -69.79122,0 -126.42225,56.62412 -126.42225,126.41534 0,33.75456 13.25009,64.43863 34.83337,87.12147 l 183.21234,0 c 21.57636,-22.68284 34.82646,-53.36691 34.82646,-87.12147 0,-69.79122 -56.65869,-126.41534 -126.44992,-126.41534 z m 140.29475,128.26178 c 0,77.43286 -62.84806,140.274 -140.28092,140.274 -77.43285,0 -140.274,-62.84114 -140.274,-140.274 0,-77.43285 62.84115,-140.28092 140.274,-140.28092 77.43286,0 140.28092,62.84807 140.28092,140.28092 z"
       style="fill:#5b6066;fill-rule:evenodd;stroke:#000000;stroke-width:0.69155002;stroke-linecap:square"
       id="path2510" />
    <path
       inkscape:connector-curvature="0"
       d="m 645.33889,264.96845 c -51.61037,0 -93.51139,41.90102 -93.51139,93.51139 0,37.70331 22.37164,70.21307 54.54947,84.99841 l 0.77453,0 25.08944,-44.43209 25.91237,0 25.37297,44.43209 0.78146,0 c 32.1709,-14.78534 54.54254,-47.2951 54.54254,-84.99841 0,-51.61037 -41.90101,-93.51139 -93.51139,-93.51139 z"
       style="fill:none;stroke:#000000;stroke-width:0.69155002;stroke-linecap:square"
       id="path3167" />
    <path
       inkscape:connector-curvature="0"
       d="m 553.14145,359.04691 184.4018,0"
       style="fill:none;stroke:#ffffff;stroke-width:2.76620007"
       id="path4153" />
    <path
       inkscape:connector-curvature="0"
       d="m 613.76272,385.90672 63.0417,0 m 11.41749,0 46.23012,0 m -178.22627,0 45.89817,0"
       style="fill:none;stroke:#ffffff;stroke-width:1.33676612"
       sodipodi:nodetypes="cccccc"
       id="path4247" />
    <path
       inkscape:connector-curvature="0"
       d="m 677.33691,372.44224 60.20634,0 m -113.97435,0 43.64372,0 m -114.07117,0 60.29624,0"
       style="fill:none;stroke:#ffffff;stroke-width:1.38310003"
       sodipodi:nodetypes="cccccc"
       id="path4245" />
    <path
       inkscape:connector-curvature="0"
       d="m 705.61439,419.79267 -59.26583,-60.30317 88.64288,23.36748 m -150.49512,36.93569 59.26584,-60.30316 -88.64288,23.36747"
       style="fill:none;stroke:#ffffff;stroke-width:1.38310003"
       id="path4378" />
    <path
       inkscape:connector-curvature="0"
       d="m 668.78244,376.50855 0,-8.31934 1.0719,0 0,8.31934 -1.0719,0 z m 5.06906,0.15214 c -0.62239,0 -1.0719,-0.35269 -1.36235,-1.05115 -0.29045,-0.70538 -0.42876,-1.77729 -0.42876,-3.22263 0,-2.8561 0.59473,-4.28069 1.79111,-4.28069 0.61548,0 1.07191,0.33886 1.36927,1.02349 0.29737,0.68464 0.44951,1.77037 0.44951,3.2572 0,1.4246 -0.14523,2.4965 -0.42876,3.20188 -0.28354,0.7123 -0.74687,1.0719 -1.39002,1.0719 z m 0.71922,-4.27378 c 0,-1.28628 -0.0553,-2.15763 -0.17289,-2.62097 -0.11065,-0.46334 -0.29045,-0.69155 -0.5325,-0.69155 -0.24204,0 -0.42184,0.20055 -0.5394,0.60856 -0.11757,0.4011 -0.17289,1.30703 -0.17289,2.70396 0,2.19222 0.23513,3.28487 0.71229,3.28487 0.47026,0 0.70539,-1.09265 0.70539,-3.28487 z"
       style="fill:#ffffff"
       id="flowRoot4463" />
    <g
       id="g3473">
      <rect
         x="578.02344"
         y="356.54489"
         width="45.900249"
         height="5.2032914"
         ry="2.6016111"
         style="fill:#fc9258;fill-rule:evenodd;stroke:#000000;stroke-width:0.51866251;stroke-linecap:square"
         id="rect3175" />
      <rect
         x="666.75623"
         y="356.54489"
         width="45.900249"
         height="5.2032914"
         ry="2.6016111"
         style="fill:#fc9258;fill-rule:evenodd;stroke:#000000;stroke-width:0.51866251;stroke-linecap:square"
         id="rect3177" />
      <circle
         r="2.6016409"
         cy="359.14566"
         cx="645.33765"
         style="fill:#fc9258;fill-rule:evenodd;stroke:#000000;stroke-width:0.51866251;stroke-linecap:square"
         id="path3179" />
    </g>
    <path
       inkscape:connector-curvature="0"
       d="m 610.47786,439.30129 c 1.39001,-2.39276 7.0054,-12.28884 12.48247,-21.99821 l 9.95832,-17.64835 12.42716,0.0346 12.42715,0.0346 12.45482,21.96363 12.45481,21.95671 -37.36444,0 -37.35753,0 2.51724,-4.34293 z"
       style="fill:#5b6066"
       id="path4095" />
    <path
       inkscape:connector-curvature="0"
       d="m 535.30637,358.86019 13.831,0"
       style="fill:none;stroke:#ffffff;stroke-width:5.53240013;stroke-linecap:round"
       id="path4139" />
    <path
       inkscape:connector-curvature="0"
       d="m 741.76862,358.86019 13.83101,0"
       style="fill:none;stroke:#ffffff;stroke-width:5.53240013;stroke-linecap:round"
       id="path4141" />
    <path
       inkscape:connector-curvature="0"
       d="m 559.06111,314.18606 -11.97764,-6.9155"
       style="fill:none;stroke:#ffffff;stroke-width:5.53240013;stroke-linecap:round"
       id="path4143" />
    <path
       inkscape:connector-curvature="0"
       d="m 731.18791,314.18606 11.97765,-6.9155"
       style="fill:none;stroke:#ffffff;stroke-width:5.53240013;stroke-linecap:round"
       id="path4145" />
    <path
       inkscape:connector-curvature="0"
       d="m 645.48412,248.13612 0,13.831"
       style="fill:none;stroke:#ffffff;stroke-width:5.53240013;stroke-linecap:square"
       id="path4147" />
    <path
       inkscape:connector-curvature="0"
       d="m 703.15939,264.83706 -6.9155,11.97764"
       style="fill:none;stroke:#ffffff;stroke-width:5.53240013;stroke-linecap:round"
       id="path4149" />
    <path
       inkscape:connector-curvature="0"
       d="m 586.77844,264.83706 6.9155,11.97764"
       style="fill:none;stroke:#ffffff;stroke-width:5.53240013;stroke-linecap:round"
       id="path4151" />
    <path
       inkscape:connector-curvature="0"
       d="m 615.60224,376.50855 0,-8.31934 1.07191,0 0,8.31934 -1.07191,0 z m 5.06906,0.15214 c -0.62239,0 -1.0719,-0.35269 -1.36235,-1.05115 -0.29045,-0.70538 -0.42876,-1.77729 -0.42876,-3.22263 0,-2.8561 0.59473,-4.28069 1.79111,-4.28069 0.61548,0 1.07191,0.33886 1.36927,1.02349 0.29737,0.68464 0.44951,1.77037 0.44951,3.2572 0,1.4246 -0.14522,2.4965 -0.42876,3.20188 -0.28354,0.7123 -0.74687,1.0719 -1.39002,1.0719 z m 0.71922,-4.27378 c 0,-1.28628 -0.0553,-2.15763 -0.17289,-2.62097 -0.11065,-0.46334 -0.29045,-0.69155 -0.53249,-0.69155 -0.24205,0 -0.42185,0.20055 -0.53941,0.60856 -0.11757,0.4011 -0.17289,1.30703 -0.17289,2.70396 0,2.19222 0.23513,3.28487 0.7123,3.28487 0.47025,0 0.70538,-1.09265 0.70538,-3.28487 z"
       style="fill:#ffffff"
       id="flowRoot4471" />
    <path
       inkscape:connector-curvature="0"
       d="m 678.53329,389.8278 0,-0.16597 c 1.45917,-2.41351 2.1853,-4.32219 2.1853,-5.7122 0,-0.42185 -0.0968,-0.76071 -0.29045,-1.01658 -0.20055,-0.24896 -0.46334,-0.38035 -0.78837,-0.38035 -0.23512,0 -0.54632,0.0968 -0.93359,0.27662 l 0,-1.10648 c 0.42876,-0.20055 0.82986,-0.29737 1.2033,-0.29737 0.58781,0 1.05115,0.20746 1.39693,0.62239 0.33886,0.41494 0.51175,0.98201 0.51175,1.70813 0,0.6224 -0.13831,1.30012 -0.40802,2.03316 -0.26279,0.73304 -0.71921,1.72888 -1.36235,2.98058 l 1.94325,0 0,1.05807 -3.45775,0 z m 6.37609,0.15214 c -0.62239,0 -1.0719,-0.35269 -1.36235,-1.05115 -0.29045,-0.70538 -0.42876,-1.77729 -0.42876,-3.22263 0,-2.8561 0.59473,-4.28069 1.79111,-4.28069 0.61548,0 1.07191,0.33886 1.36927,1.02349 0.29737,0.68464 0.44951,1.77037 0.44951,3.2572 0,1.4246 -0.14523,2.4965 -0.42876,3.20188 -0.28354,0.7123 -0.74687,1.0719 -1.39002,1.0719 z m 0.71922,-4.27378 c 0,-1.28628 -0.0553,-2.15763 -0.17289,-2.62097 -0.11065,-0.46334 -0.29045,-0.69155 -0.53249,-0.69155 -0.24205,0 -0.42185,0.20055 -0.53941,0.60856 -0.11757,0.4011 -0.17289,1.30703 -0.17289,2.70396 0,2.19222 0.23513,3.28487 0.7123,3.28487 0.47025,0 0.70538,-1.09265 0.70538,-3.28487 z"
       style="fill:#ffffff"
       id="flowRoot4479" />
    <path
       inkscape:connector-curvature="0"
       d="m 604.19166,389.79322 0,-0.16597 c 1.45917,-2.41351 2.1853,-4.32219 2.1853,-5.7122 0,-0.42185 -0.0968,-0.76071 -0.29045,-1.01658 -0.20055,-0.24896 -0.46334,-0.38035 -0.78837,-0.38035 -0.23512,0 -0.54632,0.0968 -0.93359,0.27662 l 0,-1.10648 c 0.42876,-0.20055 0.82986,-0.29737 1.2033,-0.29737 0.58781,0 1.05115,0.20746 1.39693,0.62239 0.33886,0.41494 0.51175,0.98201 0.51175,1.70813 0,0.6224 -0.13831,1.30012 -0.40802,2.03316 -0.26279,0.73304 -0.71921,1.72888 -1.36235,2.98058 l 1.94325,0 0,1.05807 -3.45775,0 z m 6.37609,0.15214 c -0.62239,0 -1.0719,-0.35269 -1.36235,-1.05115 -0.29045,-0.70538 -0.42876,-1.77729 -0.42876,-3.22263 0,-2.8561 0.59473,-4.28069 1.79111,-4.28069 0.61548,0 1.07191,0.33886 1.36927,1.02349 0.29737,0.68464 0.44951,1.77037 0.44951,3.2572 0,1.4246 -0.14523,2.4965 -0.42876,3.20188 -0.28354,0.7123 -0.74687,1.0719 -1.39002,1.0719 z m 0.71922,-4.27378 c 0,-1.28628 -0.0553,-2.15763 -0.17289,-2.62097 -0.11065,-0.46334 -0.29045,-0.69155 -0.53249,-0.69155 -0.24205,0 -0.42185,0.20055 -0.53941,0.60856 -0.11757,0.4011 -0.17289,1.30703 -0.17289,2.70396 0,2.19222 0.23513,3.28487 0.7123,3.28487 0.47025,0 0.70538,-1.09265 0.70538,-3.28487 z"
       style="fill:#ffffff"
       id="flowRoot4489" />
    <path
       inkscape:connector-curvature="0"
       d="m 625.55365,251.17894 2.39968,13.62354"
       style="fill:none;stroke:#ffffff;stroke-width:2.07465005;stroke-linecap:square"
       id="path4500" />
    <path
       inkscape:connector-curvature="0"
       d="M 665.41459,251.17894 663.008,264.80248"
       style="fill:none;stroke:#ffffff;stroke-width:2.07465005;stroke-linecap:square"
       id="path4502" />
    <path
       inkscape:connector-curvature="0"
       d="m 606.30781,256.75284 4.7302,13.00114"
       style="fill:none;stroke:#ffffff;stroke-width:2.07465005;stroke-linecap:square"
       id="path4504" />
    <path
       inkscape:connector-curvature="0"
       d="m 683.99654,256.75284 -4.7302,13.00114"
       style="fill:none;stroke:#ffffff;stroke-width:2.07465005;stroke-linecap:square"
       id="path4506" />
    <path
       inkscape:connector-curvature="0"
       d="m 630.09713,233.68273 30.40054,0 -8.75502,31.42403 -3.71363,0 0,-29.09351 -5.64305,0 0.38727,29.09351 -3.33327,0 -9.34284,-31.42403 z"
       style="fill:#ff4a23;fill-rule:evenodd;stroke:#000000;stroke-width:0.34577501"
       sodipodi:nodetypes="ccccccccccc"
       id="path4508" />
    <path
       id="path3457"
       style="fill:none;stroke:#ffffff;stroke-width:1.4461695;stroke-linecap:square"
       d="m 636.93656,331.09216 16.80467,0.0899"
       inkscape:connector-curvature="0" />
    <path
       id="path3459"
       style="fill:#ffffff"
       d="m 656.86012,349.68333 -0.0622,-7.39267 0.94742,-0.007 0.0691,7.39267 -0.95433,0.007 z m 4.5089,0.0968 c -0.55324,0.007 -0.96125,-0.30428 -1.21713,-0.92667 -0.26279,-0.61548 -0.4011,-1.56982 -0.40801,-2.85611 -0.0277,-2.53798 0.49792,-3.81044 1.55599,-3.81735 0.54632,-0.007 0.96125,0.29737 1.23096,0.89901 0.2697,0.60165 0.40801,1.56982 0.42184,2.89068 0.007,1.26554 -0.11065,2.21988 -0.35269,2.84919 -0.24896,0.63622 -0.65697,0.95434 -1.23096,0.96125 z m 0.60165,-3.80352 c -0.007,-1.14106 -0.0622,-1.9156 -0.16597,-2.33053 -0.10373,-0.40801 -0.26279,-0.60856 -0.48409,-0.60856 -0.21438,0 -0.37343,0.18672 -0.47025,0.54633 -0.10373,0.3596 -0.14523,1.1618 -0.13831,2.40659 0.0208,1.94325 0.23513,2.91834 0.65697,2.91142 0.42185,0 0.6224,-0.97508 0.60165,-2.92525 z"
       inkscape:connector-curvature="0" />
    <path
       id="path3461"
       style="fill:#ffffff"
       d="m 655.67244,334.80194 0,-0.14744 c 1.29636,-2.14423 1.94147,-3.83994 1.94147,-5.07487 0,-0.37477 -0.086,-0.67583 -0.25804,-0.90315 -0.17818,-0.22119 -0.41164,-0.33791 -0.7004,-0.33791 -0.20889,0 -0.48537,0.086 -0.82943,0.24575 l 0,-0.98301 c 0.38092,-0.17818 0.73727,-0.2642 1.06904,-0.2642 0.52222,0 0.93387,0.18432 1.24107,0.55295 0.30105,0.36864 0.45464,0.87243 0.45464,1.51754 0,0.55296 -0.12287,1.15506 -0.36249,1.80631 -0.23347,0.65125 -0.63896,1.53598 -1.21034,2.64802 l 1.72643,0 0,0.94001 -3.07195,0 z m 5.66467,0.13517 c -0.55294,0 -0.9523,-0.31334 -1.21034,-0.93387 -0.25804,-0.62668 -0.38093,-1.57899 -0.38093,-2.86306 0,-2.53743 0.52838,-3.80307 1.59127,-3.80307 0.54681,0 0.95231,0.30105 1.2165,0.90929 0.26418,0.60826 0.39935,1.57285 0.39935,2.89378 0,1.26565 -0.12902,2.21795 -0.38092,2.84462 -0.25191,0.63283 -0.66354,0.95231 -1.23493,0.95231 z m 0.63898,-3.79693 c 0,-1.14277 -0.0491,-1.91689 -0.15361,-2.32854 -0.0983,-0.41164 -0.25804,-0.61439 -0.47307,-0.61439 -0.21505,0 -0.37478,0.17818 -0.47922,0.54067 -0.10446,0.35635 -0.15361,1.1612 -0.15361,2.40226 0,1.94762 0.2089,2.91836 0.63283,2.91836 0.41778,0 0.62668,-0.97074 0.62668,-2.91836 z"
       inkscape:connector-curvature="0" />
    <path
       inkscape:connector-curvature="0"
       d="m 626.60048,334.80194 0,-0.14744 c 1.29636,-2.14423 1.94147,-3.83994 1.94147,-5.07487 0,-0.37477 -0.086,-0.67583 -0.25804,-0.90315 -0.17818,-0.22119 -0.41164,-0.33791 -0.7004,-0.33791 -0.20889,0 -0.48537,0.086 -0.82943,0.24575 l 0,-0.98301 c 0.38092,-0.17818 0.73727,-0.2642 1.06904,-0.2642 0.52222,0 0.93387,0.18432 1.24107,0.55295 0.30105,0.36864 0.45464,0.87243 0.45464,1.51754 0,0.55296 -0.12287,1.15506 -0.36249,1.80631 -0.23347,0.65125 -0.63896,1.53598 -1.21034,2.64802 l 1.72643,0 0,0.94001 -3.07195,0 z m 5.66467,0.13517 c -0.55294,0 -0.9523,-0.31334 -1.21034,-0.93387 -0.25804,-0.62668 -0.38093,-1.57899 -0.38093,-2.86306 0,-2.53743 0.52838,-3.80307 1.59127,-3.80307 0.54681,0 0.95231,0.30105 1.2165,0.90929 0.26418,0.60826 0.39935,1.57285 0.39935,2.89378 0,1.26565 -0.12902,2.21795 -0.38092,2.84462 -0.25191,0.63283 -0.66354,0.95231 -1.23493,0.95231 z m 0.63898,-3.79693 c 0,-1.14277 -0.0491,-1.91689 -0.15361,-2.32854 -0.0983,-0.41164 -0.25804,-0.61439 -0.47307,-0.61439 -0.21505,0 -0.37478,0.17818 -0.47922,0.54067 -0.10446,0.35635 -0.15361,1.1612 -0.15361,2.40226 0,1.94762 0.2089,2.91836 0.63283,2.91836 0.41778,0 0.62668,-0.97074 0.62668,-2.91836 z"
       style="fill:#ffffff"
       id="path3463" />
    <path
       id="path3465"
       style="fill:none;stroke:#ffffff;stroke-width:1.03732502;stroke-linecap:square"
       d="m 639.31549,324.11437 12.05372,-0.0692"
       inkscape:connector-curvature="0" />
    <path
       inkscape:connector-curvature="0"
       d="m 636.93656,316.54616 16.80467,0.0899"
       style="fill:none;stroke:#ffffff;stroke-width:1.4461695;stroke-linecap:square"
       id="path3467" />
  </g>
  <metadata
     id="metadata47">
    <rdf:RDF>
      <cc:Work>
        <dc:format>image/svg+xml</dc:format>
        <dc:type
           rdf:resource="http://purl.org/dc/dcmitype/StillImage" />
        <cc:license
           rdf:resource="http://creativecommons.org/licenses/publicdomain/" />
        <dc:publisher>
          <cc:Agent
             rdf:about="http://openclipart.org/">
            <dc:title>Openclipart</dc:title>
          </cc:Agent>
        </dc:publisher>
        <dc:title></dc:title>
        <dc:date>2008-09-10T20:32:57</dc:date>
        <dc:description>A flight instrument known as a Attitude Indicator.  It shows the aircraft's relationship to the actual horizion.  It measures pitch and roll.</dc:description>
        <dc:source>https://openclipart.org/detail/19163/attitude-indicator-by-startright</dc:source>
        <dc:creator>
          <cc:Agent>
            <dc:title>Startright</dc:title>
          </cc:Agent>
        </dc:creator>
        <dc:subject>
          <rdf:Bag>
            <rdf:li>artifical horizion</rdf:li>
            <rdf:li>attitude indicator</rdf:li>
            <rdf:li>gyro horizion</rdf:li>
          </rdf:Bag>
        </dc:subject>
      </cc:Work>
      <cc:License
         rdf:about="http://creativecommons.org/licenses/publicdomain/">
        <cc:permits
           rdf:resource="http://creativecommons.org/ns#Reproduction" />
        <cc:permits
           rdf:resource="http://creativecommons.org/ns#Distribution" />
        <cc:permits
           rdf:resource="http://creativecommons.org/ns#DerivativeWorks" />
      </cc:License>
    </rdf:RDF>
  </metadata>
</svg>
