<?xml version="1.0" encoding="UTF-8" standalone="no"?>
<!-- Generator: Adobe Illustrator 18.1.1, SVG Export Plug-In . SVG Version: 6.00 Build 0)  -->

<svg
   xmlns:dc="http://purl.org/dc/elements/1.1/"
   xmlns:cc="http://creativecommons.org/ns#"
   xmlns:rdf="http://www.w3.org/1999/02/22-rdf-syntax-ns#"
   xmlns:svg="http://www.w3.org/2000/svg"
   xmlns="http://www.w3.org/2000/svg"
   xmlns:sodipodi="http://sodipodi.sourceforge.net/DTD/sodipodi-0.dtd"
   xmlns:inkscape="http://www.inkscape.org/namespaces/inkscape"
   version="1.1"
   id="Capa_1"
   x="0px"
   y="0px"
   viewBox="0 0 17.057 17.057"
   style="enable-background:new 0 0 17.057 17.057;"
   xml:space="preserve"
   inkscape:version="0.91 r13725"
   sodipodi:docname="batteryw.svg"><metadata
     id="metadata41"><rdf:RDF><cc:Work
         rdf:about=""><dc:format>image/svg+xml</dc:format><dc:type
           rdf:resource="http://purl.org/dc/dcmitype/StillImage" /><dc:title></dc:title></cc:Work></rdf:RDF></metadata><defs
     id="defs39" /><sodipodi:namedview
     pagecolor="#ffffff"
     bordercolor="#666666"
     borderopacity="1"
     objecttolerance="10"
     gridtolerance="10"
     guidetolerance="10"
     inkscape:pageopacity="0"
     inkscape:pageshadow="2"
     inkscape:window-width="1121"
     inkscape:window-height="774"
     id="namedview37"
     showgrid="false"
     inkscape:zoom="13.835962"
     inkscape:cx="17.20155"
     inkscape:cy="11.419516"
     inkscape:window-x="0"
     inkscape:window-y="0"
     inkscape:window-maximized="0"
     inkscape:current-layer="Capa_1" /><g
     id="g3"
     style="fill:#ffffff"><path
       style="fill:#ffffff"
       d="M15.545,3.533c0.018-0.072,0.03-0.146,0.03-0.224V1.806c0-0.524-0.425-0.949-0.949-0.949h-0.871   c-0.523,0-0.948,0.425-0.948,0.949v1.502c0,0.078,0.012,0.152,0.029,0.224H4.477c0.018-0.072,0.03-0.146,0.03-0.224V1.806   c0-0.524-0.425-0.949-0.949-0.949H2.687c-0.524,0-0.949,0.425-0.949,0.949v1.502c0,0.078,0.012,0.152,0.03,0.224H0v12.667h17.057   V3.533H15.545z M6.68,9.712H2.09V8.134h4.59V9.712z M15.688,9.634h-2.019v2.117h-1.317V9.633h-2.02V8.352h2.02v-2.1h1.317v2.1   h2.019V9.634z"
       id="path5" /></g><g
     id="g7" /><g
     id="g9" /><g
     id="g11" /><g
     id="g13" /><g
     id="g15" /><g
     id="g17" /><g
     id="g19" /><g
     id="g21" /><g
     id="g23" /><g
     id="g25" /><g
     id="g27" /><g
     id="g29" /><g
     id="g31" /><g
     id="g33" /><g
     id="g35" /></svg>