<?xml version="1.0" encoding="iso-8859-1"?>
<!-- Generator: Adobe Illustrator 18.1.1, SVG Export Plug-In . SVG Version: 6.00 Build 0)  -->
<svg version="1.1" id="Capa_1" xmlns="http://www.w3.org/2000/svg" xmlns:xlink="http://www.w3.org/1999/xlink" x="0px" y="0px"
	 viewBox="0 0 17.057 17.057" style="enable-background:new 0 0 17.057 17.057;" xml:space="preserve">
<g>
	<path style="fill:#030104;" d="M15.545,3.533c0.018-0.072,0.03-0.146,0.03-0.224V1.806c0-0.524-0.425-0.949-0.949-0.949h-0.871
		c-0.523,0-0.948,0.425-0.948,0.949v1.502c0,0.078,0.012,0.152,0.029,0.224H4.477c0.018-0.072,0.03-0.146,0.03-0.224V1.806
		c0-0.524-0.425-0.949-0.949-0.949H2.687c-0.524,0-0.949,0.425-0.949,0.949v1.502c0,0.078,0.012,0.152,0.03,0.224H0v12.667h17.057
		V3.533H15.545z M6.68,9.712H2.09V8.134h4.59V9.712z M15.688,9.634h-2.019v2.117h-1.317V9.633h-2.02V8.352h2.02v-2.1h1.317v2.1
		h2.019V9.634z"/>
</g>
<g>
</g>
<g>
</g>
<g>
</g>
<g>
</g>
<g>
</g>
<g>
</g>
<g>
</g>
<g>
</g>
<g>
</g>
<g>
</g>
<g>
</g>
<g>
</g>
<g>
</g>
<g>
</g>
<g>
</g>
</svg>
