<?xml version="1.0" encoding="UTF-8" standalone="no"?>
<!-- Generator: Adobe Illustrator 16.0.0, SVG Export Plug-In . SVG Version: 6.00 Build 0)  -->

<svg
   xmlns:dc="http://purl.org/dc/elements/1.1/"
   xmlns:cc="http://creativecommons.org/ns#"
   xmlns:rdf="http://www.w3.org/1999/02/22-rdf-syntax-ns#"
   xmlns:svg="http://www.w3.org/2000/svg"
   xmlns="http://www.w3.org/2000/svg"
   xmlns:sodipodi="http://sodipodi.sourceforge.net/DTD/sodipodi-0.dtd"
   xmlns:inkscape="http://www.inkscape.org/namespaces/inkscape"
   version="1.1"
   id="Capa_1"
   x="0px"
   y="0px"
   width="31.109px"
   height="31.109px"
   viewBox="0 0 31.109 31.109"
   style="enable-background:new 0 0 31.109 31.109;"
   xml:space="preserve"
   inkscape:version="0.91 r13725"
   sodipodi:docname="btrssi.svg"
   inkscape:export-filename="/Users/raph/Documents/Developement/mobile-flight/btrssi@3.png"
   inkscape:export-xdpi="130.18741"
   inkscape:export-ydpi="130.18741"><metadata
     id="metadata4290"><rdf:RDF><cc:Work
         rdf:about=""><dc:format>image/svg+xml</dc:format><dc:type
           rdf:resource="http://purl.org/dc/dcmitype/StillImage" /><dc:title></dc:title></cc:Work></rdf:RDF></metadata><defs
     id="defs4288" /><sodipodi:namedview
     pagecolor="#ffffff"
     bordercolor="#666666"
     borderopacity="1"
     objecttolerance="10"
     gridtolerance="10"
     guidetolerance="10"
     inkscape:pageopacity="0"
     inkscape:pageshadow="2"
     inkscape:window-width="1231"
     inkscape:window-height="870"
     id="namedview4286"
     showgrid="false"
     inkscape:zoom="6.5291854"
     inkscape:cx="22.738565"
     inkscape:cy="26.208993"
     inkscape:window-x="380"
     inkscape:window-y="290"
     inkscape:window-maximized="0"
     inkscape:current-layer="Capa_1" /><g
     id="g4252"><path
       d="M30.65,0v31.109h-5.289V0H30.65z M17.062,31.109h5.285V6.171h-5.285V31.109z M8.76,31.109h5.289V14.543H8.76V31.109z    M0.459,31.109h5.289V20.051H0.459V31.109z"
       id="path4254" /></g><g
     id="g4256" /><g
     id="g4258" /><g
     id="g4260" /><g
     id="g4262" /><g
     id="g4264" /><g
     id="g4266" /><g
     id="g4268" /><g
     id="g4270" /><g
     id="g4272" /><g
     id="g4274" /><g
     id="g4276" /><g
     id="g4278" /><g
     id="g4280" /><g
     id="g4282" /><g
     id="g4284" /><g
     id="g4436"
     transform="matrix(0.03132864,0,0,0.03132864,-2.7192664,0.23040273)"><g
       id="g4395"><g
         id="bluetooth"><path
           id="path4398"
           d="M 416.925,145.35 271.575,0 l -25.5,0 0,193.8 -117.3,-117.3 -35.7,35.7 142.8,142.8 -142.8,142.8 35.7,35.7 117.3,-117.3 0,193.8 25.5,0 L 416.925,364.65 307.275,255 416.925,145.35 Z m -119.85,-48.45 48.45,48.45 -48.45,48.45 0,-96.9 z m 48.45,267.75 -48.45,48.449 0,-96.899 48.45,48.45 z"
           inkscape:connector-curvature="0" /></g></g><g
       id="g4400" /><g
       id="g4402" /><g
       id="g4404" /><g
       id="g4406" /><g
       id="g4408" /><g
       id="g4410" /><g
       id="g4412" /><g
       id="g4414" /><g
       id="g4416" /><g
       id="g4418" /><g
       id="g4420" /><g
       id="g4422" /><g
       id="g4424" /><g
       id="g4426" /><g
       id="g4428" /></g></svg>