<?xml version="1.0" encoding="iso-8859-1"?>
<!-- Generator: Adobe Illustrator 16.0.0, SVG Export Plug-In . SVG Version: 6.00 Build 0)  -->
<!DOCTYPE svg PUBLIC "-//W3C//DTD SVG 1.1//EN" "http://www.w3.org/Graphics/SVG/1.1/DTD/svg11.dtd">
<svg version="1.1" id="Capa_1" xmlns="http://www.w3.org/2000/svg" xmlns:xlink="http://www.w3.org/1999/xlink" x="0px" y="0px"
	 width="485.211px" height="485.211px" viewBox="0 0 485.211 485.211" style="enable-background:new 0 0 485.211 485.211;"
	 xml:space="preserve">
<g>
	<g>
		<path d="M272.933,181.956H151.628c0-16.762-13.562-30.327-30.324-30.327v-30.324h121.302V60.651H90.978
			c-16.762,0-30.327,13.565-30.327,30.327v60.651c-16.762,0-30.324,13.565-30.324,30.327C13.562,181.956,0,195.521,0,212.282
			v181.955c0,16.76,13.564,30.322,30.327,30.322h242.606c16.76,0,30.322-13.562,30.322-30.322V212.282
			C303.255,195.521,289.692,181.956,272.933,181.956z M197.116,394.237H45.49c-8.382,0-15.163-6.785-15.163-15.163
			c0-8.382,6.781-15.168,15.163-15.168h151.626c8.382,0,15.166,6.786,15.166,15.168
			C212.282,387.452,205.499,394.237,197.116,394.237z"/>
		<path d="M394.235,90.978c0-16.762-13.562-30.327-30.327-30.327h-90.976v60.653h90.976
			C380.673,121.305,394.235,107.74,394.235,90.978z"/>
		<path d="M394.235,242.606h-30.327c-16.76,0-30.322,13.561-30.322,30.324v60.654c0,16.759,13.562,30.321,30.322,30.321h30.327
			l90.976,60.653V181.956L394.235,242.606z"/>
	</g>
</g>
<g>
</g>
<g>
</g>
<g>
</g>
<g>
</g>
<g>
</g>
<g>
</g>
<g>
</g>
<g>
</g>
<g>
</g>
<g>
</g>
<g>
</g>
<g>
</g>
<g>
</g>
<g>
</g>
<g>
</g>
</svg>
