<?xml version="1.0" encoding="iso-8859-1"?>
<!-- Generator: Adobe Illustrator 18.1.1, SVG Export Plug-In . SVG Version: 6.00 Build 0)  -->
<svg version="1.1" id="Capa_1" xmlns="http://www.w3.org/2000/svg" xmlns:xlink="http://www.w3.org/1999/xlink" x="0px" y="0px"
	 viewBox="0 0 15.045 15.045" style="enable-background:new 0 0 15.045 15.045;" xml:space="preserve">
<g>
	<g>
		<path style="fill:#030104;" d="M15.03,0.628C14.957,0.27,14.639,0,14.259,0H0.788c-0.38,0-0.697,0.27-0.77,0.628
			C0.007,0.679,0.001,0.732,0.001,0.786v8.313v5.159c0,0.434,0.353,0.787,0.786,0.787h3.627h6.218h3.627
			c0.434,0,0.786-0.354,0.786-0.787v-5.16V0.786C15.045,0.732,15.04,0.679,15.03,0.628z M13.866,9.053v4.811H9.633H5.415H1.181
			V9.053V3.735h12.685V9.053z"/>
		<polygon style="fill:#030104;" points="7.494,8.277 3.882,6.339 3.882,7.676 6.058,8.766 3.882,9.857 3.882,11.193 7.494,9.256 		
			"/>
		<rect x="8.179" y="9.908" style="fill:#030104;" width="3.742" height="0.841"/>
	</g>
</g>
<g>
</g>
<g>
</g>
<g>
</g>
<g>
</g>
<g>
</g>
<g>
</g>
<g>
</g>
<g>
</g>
<g>
</g>
<g>
</g>
<g>
</g>
<g>
</g>
<g>
</g>
<g>
</g>
<g>
</g>
</svg>
