<?xml version="1.0" encoding="UTF-8" standalone="no"?>
<!-- Generator: Adobe Illustrator 17.1.0, SVG Export Plug-In . SVG Version: 6.00 Build 0)  -->

<svg
   xmlns:dc="http://purl.org/dc/elements/1.1/"
   xmlns:cc="http://creativecommons.org/ns#"
   xmlns:rdf="http://www.w3.org/1999/02/22-rdf-syntax-ns#"
   xmlns:svg="http://www.w3.org/2000/svg"
   xmlns="http://www.w3.org/2000/svg"
   xmlns:sodipodi="http://sodipodi.sourceforge.net/DTD/sodipodi-0.dtd"
   xmlns:inkscape="http://www.inkscape.org/namespaces/inkscape"
   version="1.1"
   id="Capa_1"
   x="0px"
   y="0px"
   viewBox="0 0 246.027 246.027"
   style="enable-background:new 0 0 246.027 246.027;"
   xml:space="preserve"
   inkscape:version="0.91 r13725"
   sodipodi:docname="crossmark.svg"
   inkscape:export-filename="/Users/raph/Documents/Developement/mobile-flight/crossmark.png"
   inkscape:export-xdpi="29.27"
   inkscape:export-ydpi="29.27"><metadata
     id="metadata39"><rdf:RDF><cc:Work
         rdf:about=""><dc:format>image/svg+xml</dc:format><dc:type
           rdf:resource="http://purl.org/dc/dcmitype/StillImage" /><dc:title></dc:title></cc:Work></rdf:RDF></metadata><defs
     id="defs37" /><sodipodi:namedview
     pagecolor="#ffffff"
     bordercolor="#666666"
     borderopacity="1"
     objecttolerance="10"
     gridtolerance="10"
     guidetolerance="10"
     inkscape:pageopacity="0"
     inkscape:pageshadow="2"
     inkscape:window-width="809"
     inkscape:window-height="597"
     id="namedview35"
     showgrid="false"
     inkscape:zoom="0.95924434"
     inkscape:cx="123.0135"
     inkscape:cy="206.41248"
     inkscape:window-x="0"
     inkscape:window-y="0"
     inkscape:window-maximized="0"
     inkscape:current-layer="Capa_1" /><path
     d="M242.751,196.508L143.937,25.358c-4.367-7.564-12.189-12.081-20.924-12.081c-8.735,0-16.557,4.516-20.924,12.081  L3.276,196.508c-4.368,7.564-4.368,16.596,0,24.161s12.189,12.081,20.924,12.081h197.629c8.734,0,16.556-4.516,20.923-12.08  C247.119,213.105,247.118,204.073,242.751,196.508z M123.014,204.906c-8.672,0-15.727-7.055-15.727-15.727  c0-8.671,7.055-15.726,15.727-15.726s15.727,7.055,15.727,15.726C138.74,197.852,131.685,204.906,123.014,204.906z M138.847,137.68  c0,8.73-7.103,15.833-15.833,15.833s-15.833-7.103-15.833-15.833V65.013c0-4.142,3.358-7.5,7.5-7.5h16.667  c4.143,0,7.5,3.358,7.5,7.5V137.68z"
     id="path3"
     style="fill:#ea2424;fill-opacity:1" /><g
     id="g5" /><g
     id="g7" /><g
     id="g9" /><g
     id="g11" /><g
     id="g13" /><g
     id="g15" /><g
     id="g17" /><g
     id="g19" /><g
     id="g21" /><g
     id="g23" /><g
     id="g25" /><g
     id="g27" /><g
     id="g29" /><g
     id="g31" /><g
     id="g33" /></svg>