<?xml version="1.0" encoding="iso-8859-1"?>
<!-- Generator: Adobe Illustrator 19.0.0, SVG Export Plug-In . SVG Version: 6.00 Build 0)  -->
<svg version="1.1" id="Capa_1" xmlns="http://www.w3.org/2000/svg" xmlns:xlink="http://www.w3.org/1999/xlink" x="0px" y="0px"
	 viewBox="0 0 46.412 46.412" style="enable-background:new 0 0 46.412 46.412;" xml:space="preserve">
<path d="M39.652,16.446C39.652,7.363,32.289,0,23.206,0C14.124,0,6.761,7.363,6.761,16.446c0,1.775,0.285,3.484,0.806,5.086h0
	c0,0,1.384,6.212,15.536,24.742c8.103-10.611,12.018-17.178,13.885-20.857C38.67,22.836,39.652,19.756,39.652,16.446z
	 M23.024,27.044c-5.752,0-10.416-4.663-10.416-10.416c0-5.752,4.664-10.415,10.416-10.415s10.416,4.663,10.416,10.415
	C33.439,22.381,28.776,27.044,23.024,27.044z"/>
<path d="M23.206,46.412c-0.036-0.047-0.07-0.092-0.105-0.139c-0.036,0.047-0.07,0.091-0.106,0.139H23.206z"/>
<g>
</g>
<g>
</g>
<g>
</g>
<g>
</g>
<g>
</g>
<g>
</g>
<g>
</g>
<g>
</g>
<g>
</g>
<g>
</g>
<g>
</g>
<g>
</g>
<g>
</g>
<g>
</g>
<g>
</g>
</svg>
