<?xml version="1.0" encoding="UTF-8" standalone="no"?>
<!-- Generator: Adobe Illustrator 19.0.0, SVG Export Plug-In . SVG Version: 6.00 Build 0)  -->

<svg
   xmlns:dc="http://purl.org/dc/elements/1.1/"
   xmlns:cc="http://creativecommons.org/ns#"
   xmlns:rdf="http://www.w3.org/1999/02/22-rdf-syntax-ns#"
   xmlns:svg="http://www.w3.org/2000/svg"
   xmlns="http://www.w3.org/2000/svg"
   xmlns:sodipodi="http://sodipodi.sourceforge.net/DTD/sodipodi-0.dtd"
   xmlns:inkscape="http://www.inkscape.org/namespaces/inkscape"
   version="1.1"
   id="Capa_1"
   x="0px"
   y="0px"
   viewBox="0 0 391.758 391.758"
   style="enable-background:new 0 0 391.758 391.758;"
   xml:space="preserve"
   inkscape:version="0.91 r13725"
   sodipodi:docname="OSD.svg"
   inkscape:export-filename="/Users/raph/Documents/Developement/mobile-flight/osd.png"
   inkscape:export-xdpi="6.8920097"
   inkscape:export-ydpi="6.8920097"><metadata
     id="metadata41"><rdf:RDF><cc:Work
         rdf:about=""><dc:format>image/svg+xml</dc:format><dc:type
           rdf:resource="http://purl.org/dc/dcmitype/StillImage" /><dc:title></dc:title></cc:Work></rdf:RDF></metadata><defs
     id="defs39" /><sodipodi:namedview
     pagecolor="#ffffff"
     bordercolor="#666666"
     borderopacity="1"
     objecttolerance="10"
     gridtolerance="10"
     guidetolerance="10"
     inkscape:pageopacity="0"
     inkscape:pageshadow="2"
     inkscape:window-width="1491"
     inkscape:window-height="988"
     id="namedview37"
     showgrid="false"
     inkscape:zoom="2.4096509"
     inkscape:cx="190.18281"
     inkscape:cy="223.02568"
     inkscape:window-x="238"
     inkscape:window-y="150"
     inkscape:window-maximized="0"
     inkscape:current-layer="Capa_1" /><path
     inkscape:connector-curvature="0"
     id="path5"
     d="m 379.515,269.333 c 0,6.764 -5.478,12.242 -12.242,12.242 l -342.788,0 c -6.764,0 -12.242,-5.478 -12.242,-12.242 l 0,-232.606 c 0,-6.764 5.478,-12.242 12.242,-12.242 l 342.788,0 c 6.764,0 12.242,5.478 12.242,12.242 z m -183.636,42.849 c -3.379,0 -6.121,-2.742 -6.121,-6.121 0,-3.379 2.742,-6.121 6.121,-6.121 3.379,0 6.121,2.742 6.121,6.121 0,3.379 -2.742,6.121 -6.121,6.121 z m 171.394,-299.94 -342.788,0 C 10.963,12.242 0,23.206 0,36.727 L 0,306.06 c 0,13.522 10.963,24.485 24.485,24.485 l 342.788,0 c 13.522,0 24.485,-10.963 24.485,-24.485 l 0,-269.333 c 0,-13.521 -10.964,-24.485 -24.485,-24.485 z m -6.637,32.061 -30.606,0 c -1.689,0 -3.061,1.371 -3.061,3.061 l 0,12.242 c 0,1.689 1.371,3.061 3.061,3.061 l 30.606,0 c 1.689,0 3.061,-1.371 3.061,-3.061 l 0,-12.242 c 0,-1.69 -1.371,-3.061 -3.061,-3.061 z m -20.303,96.485 -30.606,0 c -1.689,0 -3.061,1.371 -3.061,3.061 l 0,12.242 c 0,1.689 1.371,3.061 3.061,3.061 l 30.606,0 c 1.689,0 3.061,-1.371 3.061,-3.061 l 0,-12.242 c 0,-1.69 -1.371,-3.061 -3.061,-3.061 z m -42.848,0 -30.606,0 c -1.689,0 -3.061,1.371 -3.061,3.061 l 0,12.242 c 0,1.689 1.371,3.061 3.061,3.061 l 30.606,0 c 1.689,0 3.061,-1.371 3.061,-3.061 l 0,-12.242 c 0,-1.69 -1.372,-3.061 -3.061,-3.061 z m -42.849,0 -30.606,0 c -1.689,0 -3.061,1.371 -3.061,3.061 l 0,12.242 c 0,1.689 1.371,3.061 3.061,3.061 l 30.606,0 c 1.689,0 3.061,-1.371 3.061,-3.061 l 0,-12.242 c 0,-1.69 -1.371,-3.061 -3.061,-3.061 z m -39.788,15.303 0,-12.242 c 0,-1.689 -1.371,-3.061 -3.061,-3.061 l -30.606,0 c -1.689,0 -3.061,1.371 -3.061,3.061 l 0,12.242 c 0,1.689 1.371,3.061 3.061,3.061 l 30.606,0 c 1.69,0 3.061,-1.372 3.061,-3.061 z m -52.939,82.636 -30.606,0 c -1.689,0 -3.061,1.371 -3.061,3.061 l 0,12.242 c 0,1.689 1.371,3.061 3.061,3.061 l 30.606,0 c 1.689,0 3.061,-1.371 3.061,-3.061 l 0,-12.242 c 0,-1.69 -1.371,-3.061 -3.061,-3.061 z m -42.848,0 -30.606,0 c -1.689,0 -3.061,1.371 -3.061,3.061 l 0,12.242 c 0,1.689 1.371,3.061 3.061,3.061 l 30.606,0 c 1.689,0 3.061,-1.371 3.061,-3.061 l 0,-12.242 c -0.001,-1.69 -1.372,-3.061 -3.061,-3.061 z m -42.849,0 -30.606,0 c -1.689,0 -3.061,1.371 -3.061,3.061 l 0,12.242 c 0,1.689 1.371,3.061 3.061,3.061 l 30.606,0 c 1.689,0 3.061,-1.371 3.061,-3.061 l 0,-12.242 c 0,-1.69 -1.371,-3.061 -3.061,-3.061 z M 172,156.091 l 0,-12.242 c 0,-1.689 -1.371,-3.061 -3.061,-3.061 l -30.606,0 c -1.689,0 -3.061,1.371 -3.061,3.061 l 0,12.242 c 0,1.689 1.371,3.061 3.061,3.061 l 30.606,0 c 1.69,0 3.061,-1.372 3.061,-3.061 z m -42.848,0 0,-12.242 c 0,-1.689 -1.371,-3.061 -3.061,-3.061 l -30.606,0 c -1.689,0 -3.061,1.371 -3.061,3.061 l 0,12.242 c 0,1.689 1.371,3.061 3.061,3.061 l 30.606,0 c 1.689,0 3.061,-1.372 3.061,-3.061 z m -45.91,-15.303 -30.606,0 c -1.689,0 -3.061,1.371 -3.061,3.061 l 0,12.242 c 0,1.689 1.371,3.061 3.061,3.061 l 30.606,0 c 1.689,0 3.061,-1.371 3.061,-3.061 l 0,-12.242 c 0,-1.69 -1.371,-3.061 -3.061,-3.061 z m 203.94,-78.121 30.606,0 c 1.689,0 3.061,-1.371 3.061,-3.061 l 0,-12.242 c 0,-1.689 -1.371,-3.061 -3.061,-3.061 l -30.606,0 c -1.689,0 -3.061,1.371 -3.061,3.061 l 0,12.242 c 0,1.69 1.371,3.061 3.061,3.061 z m -45.909,-3.061 c 0,1.689 1.371,3.061 3.061,3.061 l 30.606,0 c 1.689,0 3.061,-1.371 3.061,-3.061 l 0,-12.242 c 0,-1.689 -1.371,-3.061 -3.061,-3.061 l -30.606,0 c -1.689,0 -3.061,1.371 -3.061,3.061 z m 117.06,130.152 -30.606,0 c -1.689,0 -3.061,1.371 -3.061,3.061 l 0,12.242 c 0,1.689 1.371,3.061 3.061,3.061 l 30.606,0 c 1.689,0 3.061,-1.371 3.061,-3.061 l 0,-12.242 c 0,-1.69 -1.371,-3.061 -3.061,-3.061 z m 1.152,48 -30.606,0 c -1.689,0 -3.061,1.371 -3.061,3.061 l 0,12.242 c 0,1.689 1.371,3.061 3.061,3.061 l 30.606,0 c 1.689,0 3.061,-1.371 3.061,-3.061 l 0,-12.242 c 0,-1.69 -1.372,-3.061 -3.061,-3.061 z m -0.849,-24 -30.606,0 c -1.689,0 -3.061,1.371 -3.061,3.061 l 0,12.242 c 0,1.689 1.371,3.061 3.061,3.061 l 30.606,0 c 1.689,0 3.061,-1.371 3.061,-3.061 l 0,-12.242 c 0,-1.69 -1.371,-3.061 -3.061,-3.061 z M 124.333,62.182 l 30.606,0 c 1.689,0 3.061,-1.371 3.061,-3.061 l 0,-12.242 c 0,-1.689 -1.371,-3.061 -3.061,-3.061 l -30.606,0 c -1.689,0 -3.061,1.371 -3.061,3.061 l 0,12.242 c 10e-4,1.69 1.372,3.061 3.061,3.061 z m -42.848,0 30.606,0 c 1.689,0 3.061,-1.371 3.061,-3.061 l 0,-12.242 c 0,-1.689 -1.371,-3.061 -3.061,-3.061 l -30.606,0 c -1.689,0 -3.061,1.371 -3.061,3.061 l 0,12.242 c 0,1.69 1.371,3.061 3.061,3.061 z m -12.243,-18.364 -30.606,0 c -1.689,0 -3.061,1.371 -3.061,3.061 l 0,12.242 c 0,1.689 1.371,3.061 3.061,3.061 l 30.606,0 c 1.689,0 3.061,-1.371 3.061,-3.061 l 0,-12.242 c 0,-1.69 -1.371,-3.061 -3.061,-3.061 z"
     sodipodi:nodetypes="sssssssssscssssccssssssscccssssssscccssssssscccssssssccccssssssscccscsssssccccsssssscccssssssccscssssssssccssssssscccssssssscccssssssscccsssssssccssssssssscssssssscccscsssscccccsssssscccsssssscc" /><g
     id="g7" /><g
     id="g9" /><g
     id="g11" /><g
     id="g13" /><g
     id="g15" /><g
     id="g17" /><g
     id="g19" /><g
     id="g21" /><g
     id="g23" /><g
     id="g25" /><g
     id="g27" /><g
     id="g29" /><g
     id="g31" /><g
     id="g33" /><g
     id="g35" /></svg>