<?xml version='1.0' encoding='utf-8'?>
<!DOCTYPE svg PUBLIC '-//W3C//DTD SVG 1.1//EN' 'http://www.w3.org/Graphics/SVG/1.1/DTD/svg11.dtd'>
<svg version="1.1" xmlns="http://www.w3.org/2000/svg" viewBox="0 0 512 512" xmlns:xlink="http://www.w3.org/1999/xlink" enable-background="new 0 0 512 512">
  <g>
    <g>
      <path d="m250.5,189.6c9.8,5.6 22.3,2.3 27.9-7.5 16.1-28 52-37.7 80-21.6 28,16.1 37.7,52 21.6,80-5.6,9.8-2.3,22.3 7.5,27.9 3.2,1.8 6.7,2.7 10.2,2.7 7.1,0 13.9-3.7 17.7-10.2 27.3-47.5 10.9-108.4-36.6-135.8-47.5-27.4-108.4-10.9-135.8,36.6-5.7,9.8-2.3,22.3 7.5,27.9z"/>
      <path d="m475.3,271.8l-12.4-7.1c-9.8-5.6-22.2-2.3-27.9,7.5-5.6,9.8-2.3,22.3 7.5,27.9l12.4,7.1c14.9,6.4 24.1-1 27.9-7.5 5.6-9.8 2.3-22.3-7.5-27.9z"/>
      <path d="m183,150.8l12.4,7.1c10.2,5.2 21.1,2.7 27.9-7.5 6.2-9.4 2.2-22.3-7.5-27.9l-12.4-7.1c-9.8-5.6-22.3-2.2-27.9,7.5-5.6,9.8-2.2,22.3 7.5,27.9z"/>
      <path d="m390.1,105.5c11.9,6.4 24.1-1 27.9-7.5l7.1-12.4c5.6-9.8 2.3-22.3-7.5-27.9-9.8-5.6-22.3-2.2-27.9,7.5l-7.1,12.4c-5.7,9.8-2.5,22.6 7.5,27.9z"/>
      <path d="m272.3,79.1c2.5,9.1 12.9,17.7 25,14.4 10.9-2.9 17.3-14.1 14.4-25l-3.7-13.9c-2.9-10.9-14.1-17.3-25-14.4-10.9,2.9-17.3,14.1-14.4,25l3.7,13.9z"/>
      <path d="m500.3,165.2c-2.9-10.9-14.1-17.3-25-14.4l-13.8,3.7c-10.9,2.9-17.3,14.1-14.4,25 2.5,9.1 12.2,16.8 25,14.4l13.8-3.7c10.9-2.9 17.3-14.1 14.4-25z"/>
      <path d="m361.3,296.3c-12.1-32.2-42.9-54.2-78.8-54.2-7.2,0-14.3,0.9-21.2,2.7-20.5-23.4-50-36.9-81.8-36.9-54.4,0.1-99.5,39.9-107.5,92.3-35.7,11.7-61,45.3-61,83.9 0,48.8 39.9,88.4 89,88.4h250c49,0 89-39.7 89-88.4 0-45-34-82.3-77.7-87.8zm-11.3,135.4h-250c-26.5,0-48.1-21.4-48.1-47.6 0-23.8 18-44.1 41.9-47.2 10.2-1.3 17.8-10.6 17.8-20.9 0-37.1 30.5-67.2 67.9-67.2 23.4,0 44.9,11.7 57.5,31.4 5.6,8.8 16.9,12 26.2,7.3 6.1-3 12.6-4.5 19.3-4.5 21.5,0 39,15.3 42.8,36.2 2.6,14.4 9.8,17.2 24.8,17.2 27,0 48.1,21.4 48.1,47.6s-21.6,47.7-48.2,47.7z"/>
    </g>
  </g>
</svg>
