<?xml version="1.0" encoding="iso-8859-1"?>
<!-- Generator: Adobe Illustrator 18.1.1, SVG Export Plug-In . SVG Version: 6.00 Build 0)  -->
<svg version="1.1" id="Capa_1" xmlns="http://www.w3.org/2000/svg" xmlns:xlink="http://www.w3.org/1999/xlink" x="0px" y="0px"
	 viewBox="0 0 32 32" style="enable-background:new 0 0 32 32;" xml:space="preserve">
<g>
	<g>
		<path style="fill:#030104;" d="M20,25.5c-0.553,0-1,0.443-1,1.01v1.98c0,0.558,0.443,1.01,1,1.01c0.553,0,1-0.443,1-1.01v-1.98
			C21,25.952,20.557,25.5,20,25.5z"/>
		<path style="fill:#030104;" d="M12,25.5c-0.553,0-1,0.443-1,1.01v1.98c0,0.558,0.444,1.01,1,1.01c0.553,0,1-0.443,1-1.01v-1.98
			C13,25.952,12.556,25.5,12,25.5z"/>
		<path style="fill:#030104;" d="M24,23.5c-0.553,0-1,0.443-1,1.01v1.98c0,0.558,0.443,1.01,1,1.01c0.553,0,1-0.443,1-1.01v-1.98
			C25,23.952,24.557,23.5,24,23.5z"/>
		<path style="fill:#030104;" d="M16,23.5c-0.553,0-1,0.443-1,1.01v1.98c0,0.558,0.444,1.01,1,1.01c0.553,0,1-0.443,1-1.01v-1.98
			C17,23.952,16.557,23.5,16,23.5z"/>
		<path style="fill:#030104;" d="M8,23.5c-0.553,0-1,0.443-1,1.01v1.98c0,0.558,0.444,1.01,1,1.01c0.553,0,1-0.443,1-1.01v-1.98
			C9,23.952,8.556,23.5,8,23.5z"/>
		<path style="fill:#030104;" d="M27.586,10.712C26.66,8.251,24.284,6.5,21.5,6.5c-0.641,0-1.26,0.093-1.846,0.266
			C18.068,4.205,15.233,2.5,12,2.5c-4.904,0-8.894,3.924-8.998,8.803C1.207,12.342,0,14.283,0,16.5c0,3.312,2.687,6,6,6h20
			c3.312,0,6-2.693,6-6C32,13.735,30.13,11.407,27.586,10.712z M26.003,20.5H5.997C3.794,20.5,2,18.709,2,16.5
			c0-1.892,1.317-3.482,3.087-3.896C5.029,12.245,5,11.876,5,11.5c0-3.866,3.134-7,7-7c3.162,0,5.834,2.097,6.702,4.975
			C19.471,8.864,20.441,8.5,21.5,8.5c2.316,0,4.225,1.75,4.473,4h0.03c2.203,0,3.997,1.791,3.997,4
			C30,18.705,28.211,20.5,26.003,20.5z"/>
	</g>
</g>
<g>
</g>
<g>
</g>
<g>
</g>
<g>
</g>
<g>
</g>
<g>
</g>
<g>
</g>
<g>
</g>
<g>
</g>
<g>
</g>
<g>
</g>
<g>
</g>
<g>
</g>
<g>
</g>
<g>
</g>
</svg>
