<?xml version="1.0" encoding="iso-8859-1"?>
<!-- Generator: Adobe Illustrator 16.0.0, SVG Export Plug-In . SVG Version: 6.00 Build 0)  -->
<!DOCTYPE svg PUBLIC "-//W3C//DTD SVG 1.1//EN" "http://www.w3.org/Graphics/SVG/1.1/DTD/svg11.dtd">
<svg version="1.1" id="Capa_1" xmlns="http://www.w3.org/2000/svg" xmlns:xlink="http://www.w3.org/1999/xlink" x="0px" y="0px"
	 width="64.585px" height="64.585px" viewBox="0 0 64.585 64.585" style="enable-background:new 0 0 64.585 64.585;"
	 xml:space="preserve">
<g>
	<path d="M50.104,17.812c-7.984,0-14.479,6.498-14.479,14.482c0,3.873,1.539,7.39,4.024,9.99H24.936
		c2.487-2.601,4.025-6.117,4.025-9.99c0-7.984-6.496-14.482-14.48-14.482C6.496,17.812,0,24.31,0,32.294
		c0,7.982,6.496,14.479,14.481,14.479h35.625c7.984,0,14.479-6.496,14.479-14.479C64.585,24.309,58.09,17.812,50.104,17.812z
		 M4.489,32.292c0-5.51,4.482-9.994,9.992-9.994c5.509,0,9.992,4.483,9.992,9.994c0,5.508-4.483,9.992-9.992,9.992
		C8.971,42.285,4.489,37.802,4.489,32.292z M50.104,42.285c-5.51,0-9.991-4.482-9.991-9.992c0-5.51,4.481-9.994,9.991-9.994
		c5.511,0,9.992,4.483,9.992,9.994C60.098,37.802,55.614,42.285,50.104,42.285z"/>
</g>
<g>
</g>
<g>
</g>
<g>
</g>
<g>
</g>
<g>
</g>
<g>
</g>
<g>
</g>
<g>
</g>
<g>
</g>
<g>
</g>
<g>
</g>
<g>
</g>
<g>
</g>
<g>
</g>
<g>
</g>
</svg>
