<?xml version='1.0' encoding='utf-8'?>
<!DOCTYPE svg PUBLIC '-//W3C//DTD SVG 1.1//EN' 'http://www.w3.org/Graphics/SVG/1.1/DTD/svg11.dtd'>
<svg version="1.1" xmlns="http://www.w3.org/2000/svg" viewBox="0 0 512 512" xmlns:xlink="http://www.w3.org/1999/xlink" enable-background="new 0 0 512 512">
  <g>
    <g>
      <path d="m412.4,140.7c-12.4-43.3-48-73.2-89.7-73.2-8.5,0-16.9,1.3-25,3.8-23.2-31.7-57.4-50.1-94.5-50.1-63.2,0-115.4,54.4-122.2,124-40.9,14.4-70,57.7-70,107.4 0,62.1 44.8,112.6 99.9,112.6h290.1c55.1,0 99.9-50.5 99.9-112.6 0.1-57.8-38.7-105.5-88.5-111.9zm-11.3,183.7h-290.2c-32.6,0-59.1-32.2-59.1-71.8 0-36.2 22.3-66.8 51.9-71.1 10-1.5 17.4-10.9 17.4-21 0-54.2 36.8-98.4 82.1-98.4 27.7,0 53.4,16.7 68.7,44.7 2.6,4.8 13.3,16.2 28.1,7.9 7.3-4.1 14.9-6.3 22.7-6.3 25.9,0 48.6,23.5 52.8,54.8 1.4,10.1 8,17.7 25.6,17.7 35.3,0 59.1,32.2 59.1,71.8-5.68434e-14,39.5-26.5,71.7-59.1,71.7z"/>
      <polygon points="260.9,452.5 278.4,427.4 267.3,420.6 256.1,448.6 255.7,448.6 244.3,420.8 233.1,427.8 250.4,452.3 250.4,452.7     223.3,448.9 223.3,462.5 250.6,458.7 250.6,459.1 233.1,483.6 243.6,490.8 255.5,462.5 255.9,462.5 267,490.6 278.6,483.4     260.9,459.3 260.9,458.9 288.7,462.5 288.7,448.9 260.9,452.9   "/>
      <polygon points="139.2,452.5 156.7,427.4 145.7,420.6 134.4,448.6 134.1,448.6 122.6,420.8 111.4,427.8 128.7,452.3 128.7,452.7     101.6,448.9 101.6,462.5 128.9,458.7 128.9,459.1 111.4,483.6 121.9,490.8 133.9,462.5 134.2,462.5 145.3,490.6 156.9,483.4     139.2,459.3 139.2,458.9 167,462.5 167,448.9 139.2,452.9   "/>
      <polygon points="382.6,452.5 400.1,427.4 389,420.6 377.8,448.6 377.4,448.6 366,420.8 354.8,427.8 372.1,452.3 372.1,452.7     345,448.9 345,462.5 372.3,458.7 372.3,459.1 354.8,483.6 365.3,490.8 377.2,462.5 377.6,462.5 388.6,490.6 400.2,483.4     382.6,459.3 382.6,458.9 410.4,462.5 410.4,448.9 382.6,452.9   "/>
    </g>
  </g>
</svg>
