<?xml version="1.0" encoding="UTF-8" standalone="no"?>
<!-- Generator: Adobe Illustrator 18.1.1, SVG Export Plug-In . SVG Version: 6.00 Build 0)  -->

<svg
   xmlns:dc="http://purl.org/dc/elements/1.1/"
   xmlns:cc="http://creativecommons.org/ns#"
   xmlns:rdf="http://www.w3.org/1999/02/22-rdf-syntax-ns#"
   xmlns:svg="http://www.w3.org/2000/svg"
   xmlns="http://www.w3.org/2000/svg"
   xmlns:sodipodi="http://sodipodi.sourceforge.net/DTD/sodipodi-0.dtd"
   xmlns:inkscape="http://www.inkscape.org/namespaces/inkscape"
   version="1.1"
   id="Capa_1"
   x="0px"
   y="0px"
   viewBox="0 0 76 76"
   style="enable-background:new 0 0 76 76;"
   xml:space="preserve"
   inkscape:version="0.91 r13725"
   sodipodi:docname="sonar.svg"
   inkscape:export-filename="/Users/raph/Documents/Developement/Cleanflight Configurator/sonar@3x.png"
   inkscape:export-xdpi="71.050003"
   inkscape:export-ydpi="71.050003"><metadata
     id="metadata43"><rdf:RDF><cc:Work
         rdf:about=""><dc:format>image/svg+xml</dc:format><dc:type
           rdf:resource="http://purl.org/dc/dcmitype/StillImage" /><dc:title></dc:title></cc:Work></rdf:RDF></metadata><defs
     id="defs41" /><sodipodi:namedview
     pagecolor="#ffffff"
     bordercolor="#666666"
     borderopacity="1"
     objecttolerance="10"
     gridtolerance="10"
     guidetolerance="10"
     inkscape:pageopacity="0"
     inkscape:pageshadow="2"
     inkscape:window-width="1138"
     inkscape:window-height="904"
     id="namedview39"
     showgrid="false"
     inkscape:zoom="3.1052632"
     inkscape:cx="38"
     inkscape:cy="12.237288"
     inkscape:window-x="167"
     inkscape:window-y="256"
     inkscape:window-maximized="0"
     inkscape:current-layer="Capa_1" /><g
     id="g3"
     transform="matrix(-0.49555831,0.49555831,-0.49555831,-0.49555831,75.960454,46.600011)"><g
       id="g5"><path
         style="fill:#030104"
         d="m 0,0 0,11.844 c 35.432,0 64.155,28.725 64.155,64.156 L 76,76 C 76,34.026 41.973,0 0,0 Z m 0,23.688 0,11.844 c 22.349,0 40.467,18.118 40.467,40.468 l 11.844,0 C 52.311,47.109 28.891,23.688 0,23.688 Z M 11.349,53.299 C 5.082,53.299 0,58.382 0,64.649 0,70.919 5.082,76 11.349,76 17.619,76 22.702,70.919 22.702,64.649 22.701,58.382 17.619,53.299 11.349,53.299 Z"
         id="path7"
         inkscape:connector-curvature="0" /></g></g><g
     id="g9" /><g
     id="g11" /><g
     id="g13" /><g
     id="g15" /><g
     id="g17" /><g
     id="g19" /><g
     id="g21" /><g
     id="g23" /><g
     id="g25" /><g
     id="g27" /><g
     id="g29" /><g
     id="g31" /><g
     id="g33" /><g
     id="g35" /><g
     id="g37" /></svg>