<?xml version="1.0" encoding="iso-8859-1"?>
<!-- Generator: Adobe Illustrator 18.1.1, SVG Export Plug-In . SVG Version: 6.00 Build 0)  -->
<svg version="1.1" id="Capa_1" xmlns="http://www.w3.org/2000/svg" xmlns:xlink="http://www.w3.org/1999/xlink" x="0px" y="0px"
	 viewBox="0 0 32 32" style="enable-background:new 0 0 32 32;" xml:space="preserve">
<g>
	<g>
		<polygon style="fill:#030104;" points="19,16.5 14.714,16.5 12,23.5 14.429,23.5 13,28.5 20,21.5 16.551,21.5 		"/>
		<path style="fill:#030104;" d="M27.586,11.712C26.66,9.251,24.284,7.5,21.5,7.5c-0.641,0-1.26,0.093-1.846,0.266
			C18.068,5.205,15.233,3.5,12,3.5c-4.904,0-8.894,3.924-8.998,8.803C1.207,13.342,0,15.283,0,17.5c0,3.312,2.688,6,6,6h3.8l0.8-2
			H5.997C3.794,21.5,2,19.709,2,17.5c0-1.892,1.317-3.482,3.087-3.896C5.029,13.245,5,12.876,5,12.5c0-3.866,3.134-7,7-7
			c3.162,0,5.834,2.097,6.702,4.975C19.471,9.864,20.441,9.5,21.5,9.5c2.316,0,4.225,1.75,4.473,4h0.03c2.203,0,3.997,1.791,3.997,4
			c0,2.205-1.789,4-3.997,4H23l-2,2h5c3.312,0,6-2.693,6-6C32,14.735,30.13,12.407,27.586,11.712z"/>
	</g>
</g>
<g>
</g>
<g>
</g>
<g>
</g>
<g>
</g>
<g>
</g>
<g>
</g>
<g>
</g>
<g>
</g>
<g>
</g>
<g>
</g>
<g>
</g>
<g>
</g>
<g>
</g>
<g>
</g>
<g>
</g>
</svg>
