<?xml version="1.0" encoding="iso-8859-1"?>
<!-- Generator: Adobe Illustrator 18.1.1, SVG Export Plug-In . SVG Version: 6.00 Build 0)  -->
<svg version="1.1" id="Capa_1" xmlns="http://www.w3.org/2000/svg" xmlns:xlink="http://www.w3.org/1999/xlink" x="0px" y="0px"
	 viewBox="0 0 32 32" style="enable-background:new 0 0 32 32;" xml:space="preserve">
<g>
	<path style="fill:#010002;" d="M32,32c0-4.072-3.048-7.428-6.984-7.93C29.084,19.473,28.414,12.417,24,8l-5.578,5.579
		C17.869,13.215,17.21,13,16.5,13c-1.932,0-3.5,1.567-3.5,3.5c0,0.71,0.215,1.369,0.579,1.921L8,24
		c2.534,2.534,5.939,3.833,9.252,3.716C16.463,28.955,16,30.422,16,32H32z"/>
	<path style="fill:#010002;" d="M16,2V0C11.905,0,7.81,1.562,4.686,4.687C1.562,7.811,0,11.905,0,16h2
		c0.012-3.568,1.422-7.133,4.144-9.855C8.868,3.422,12.432,2.012,16,2z"/>
	<path style="fill:#010002;" d="M16,6.002V4c-3.056,0.011-6.154,1.183-8.486,3.515S4.011,12.945,4,16h2
		c0.011-2.543,0.987-5.13,2.929-7.071C10.87,6.988,13.456,6.014,16,6.002z"/>
	<path style="fill:#010002;" d="M10,16c0.011-1.52,0.597-3.082,1.757-4.242S14.479,10.012,16,10V8
		c-2.033,0.012-4.106,0.792-5.657,2.344C8.792,11.895,8.011,13.968,8,16H10z"/>
</g>
<g>
</g>
<g>
</g>
<g>
</g>
<g>
</g>
<g>
</g>
<g>
</g>
<g>
</g>
<g>
</g>
<g>
</g>
<g>
</g>
<g>
</g>
<g>
</g>
<g>
</g>
<g>
</g>
<g>
</g>
</svg>
