<?xml version="1.0" encoding="UTF-8" standalone="no"?>
<!-- Generator: Adobe Illustrator 18.0.0, SVG Export Plug-In . SVG Version: 6.00 Build 0)  -->

<svg
   xmlns:dc="http://purl.org/dc/elements/1.1/"
   xmlns:cc="http://creativecommons.org/ns#"
   xmlns:rdf="http://www.w3.org/1999/02/22-rdf-syntax-ns#"
   xmlns:svg="http://www.w3.org/2000/svg"
   xmlns="http://www.w3.org/2000/svg"
   xmlns:sodipodi="http://sodipodi.sourceforge.net/DTD/sodipodi-0.dtd"
   xmlns:inkscape="http://www.inkscape.org/namespaces/inkscape"
   version="1.1"
   id="Capa_1"
   x="0px"
   y="0px"
   viewBox="0 0 380 380"
   style="enable-background:new 0 0 380 380;"
   xml:space="preserve"
   inkscape:version="0.91 r13725"
   sodipodi:docname="timew.svg"><metadata
     id="metadata43"><rdf:RDF><cc:Work
         rdf:about=""><dc:format>image/svg+xml</dc:format><dc:type
           rdf:resource="http://purl.org/dc/dcmitype/StillImage" /><dc:title></dc:title></cc:Work></rdf:RDF></metadata><defs
     id="defs41" /><sodipodi:namedview
     pagecolor="#ffffff"
     bordercolor="#666666"
     borderopacity="1"
     objecttolerance="10"
     gridtolerance="10"
     guidetolerance="10"
     inkscape:pageopacity="0"
     inkscape:pageshadow="2"
     inkscape:window-width="735"
     inkscape:window-height="480"
     id="namedview39"
     showgrid="false"
     inkscape:zoom="0.62105263"
     inkscape:cx="190"
     inkscape:cy="190"
     inkscape:window-x="0"
     inkscape:window-y="0"
     inkscape:window-maximized="0"
     inkscape:current-layer="Capa_1" /><g
     id="g3"
     style="fill:#ffffff"><path
       d="M190,0C85.233,0,0,85.233,0,190s85.233,190,190,190s190-85.233,190-190S294.767,0,190,0z M190,340   c-82.71,0-150-67.29-150-150S107.29,40,190,40s150,67.29,150,150S272.71,340,190,340z"
       id="path5"
       style="fill:#ffffff" /><path
       d="M291.993,184.132h-74.197c-2.696-4.393-6.403-8.1-10.796-10.796V84.139c0-9.389-7.611-17-17-17c-9.389,0-17,7.611-17,17   v89.197c-9.345,5.737-15.593,16.05-15.593,27.796c0,17.972,14.622,32.593,32.593,32.593c11.746,0,22.059-6.248,27.796-15.593   h74.197c9.389,0,17-7.611,17-17C308.993,191.743,301.382,184.132,291.993,184.132z"
       id="path7"
       style="fill:#ffffff" /></g><g
     id="g9" /><g
     id="g11" /><g
     id="g13" /><g
     id="g15" /><g
     id="g17" /><g
     id="g19" /><g
     id="g21" /><g
     id="g23" /><g
     id="g25" /><g
     id="g27" /><g
     id="g29" /><g
     id="g31" /><g
     id="g33" /><g
     id="g35" /><g
     id="g37" /></svg>