<?xml version="1.0" encoding="UTF-8" standalone="no"?>
<!-- Generator: Adobe Illustrator 16.0.0, SVG Export Plug-In . SVG Version: 6.00 Build 0)  -->

<svg
   xmlns:dc="http://purl.org/dc/elements/1.1/"
   xmlns:cc="http://creativecommons.org/ns#"
   xmlns:rdf="http://www.w3.org/1999/02/22-rdf-syntax-ns#"
   xmlns:svg="http://www.w3.org/2000/svg"
   xmlns="http://www.w3.org/2000/svg"
   xmlns:sodipodi="http://sodipodi.sourceforge.net/DTD/sodipodi-0.dtd"
   xmlns:inkscape="http://www.inkscape.org/namespaces/inkscape"
   version="1.1"
   id="Capa_1"
   x="0px"
   y="0px"
   width="45.811px"
   height="45.811px"
   viewBox="0 0 45.811 45.811"
   style="enable-background:new 0 0 45.811 45.811;"
   xml:space="preserve"
   inkscape:version="0.91 r13725"
   sodipodi:docname="upload-arrow.svg"
   inkscape:export-filename="/Users/raph/Documents/Developement/mobile-flight/upload.png"
   inkscape:export-xdpi="78.583748"
   inkscape:export-ydpi="78.583748"><metadata
     id="metadata4507"><rdf:RDF><cc:Work
         rdf:about=""><dc:format>image/svg+xml</dc:format><dc:type
           rdf:resource="http://purl.org/dc/dcmitype/StillImage" /></cc:Work></rdf:RDF></metadata><defs
     id="defs4505" /><sodipodi:namedview
     pagecolor="#ffffff"
     bordercolor="#666666"
     borderopacity="1"
     objecttolerance="10"
     gridtolerance="10"
     guidetolerance="10"
     inkscape:pageopacity="0"
     inkscape:pageshadow="2"
     inkscape:window-width="1120"
     inkscape:window-height="849"
     id="namedview4503"
     showgrid="false"
     inkscape:zoom="5.1516011"
     inkscape:cx="22.9055"
     inkscape:cy="22.9055"
     inkscape:window-x="203"
     inkscape:window-y="131"
     inkscape:window-maximized="0"
     inkscape:current-layer="Capa_1" /><g
     id="g4465"
     style="fill:#ffffff"><g
       id="g4467"
       style="fill:#ffffff"><path
         d="M24.446,0.573C24.079,0.203,23.502,0,22.925,0c-0.516,0-1.153,0.203-1.52,0.572l-11.4,11.481    c-0.56,0.563-0.725,1.408-0.417,2.139c0.306,0.731,1.022,1.207,1.815,1.206l3.72-0.03l-0.054,16.288    c0.006,1.613,1.316,2.919,2.93,2.919h9.855c1.611,0,2.922-1.306,2.928-2.919l-0.053-16.284l3.719,0.027    c0.793,0.002,1.512-0.474,1.815-1.206c0.308-0.73,0.144-1.577-0.417-2.139L24.446,0.573z"
         id="path4469"
         style="fill:#ffffff" /><path
         d="M42.442,19.371c-1.623,0-2.947,1.315-2.947,2.938v16.392c0,0.678-0.522,1.217-1.203,1.217H7.47    c-0.68,0-1.239-0.539-1.239-1.217V22.308c0-1.622-1.282-2.938-2.905-2.938c-1.622,0-2.905,1.315-2.905,2.938V38.7    c0,3.918,3.131,7.11,7.05,7.11h30.821c3.92,0,7.098-3.192,7.098-7.11V22.308C45.389,20.686,44.063,19.371,42.442,19.371z"
         id="path4471"
         style="fill:#ffffff" /></g></g><g
     id="g4473" /><g
     id="g4475" /><g
     id="g4477" /><g
     id="g4479" /><g
     id="g4481" /><g
     id="g4483" /><g
     id="g4485" /><g
     id="g4487" /><g
     id="g4489" /><g
     id="g4491" /><g
     id="g4493" /><g
     id="g4495" /><g
     id="g4497" /><g
     id="g4499" /><g
     id="g4501" /></svg>