<?xml version="1.0" encoding="iso-8859-1"?>
<!-- Generator: Adobe Illustrator 18.1.1, SVG Export Plug-In . SVG Version: 6.00 Build 0)  -->
<svg version="1.1" id="Capa_1" xmlns="http://www.w3.org/2000/svg" xmlns:xlink="http://www.w3.org/1999/xlink" x="0px" y="0px"
	 viewBox="0 0 24.968 24.968" style="enable-background:new 0 0 24.968 24.968;" xml:space="preserve">
<g>
	<path style="fill:#030104;" d="M24.677,16.239L6.429,3.316L5.86,4.536C6.095,4.403,6.3,4.359,6.459,4.433
		c0.751,0.349,0.225,3.068-1.176,6.071s-3.145,5.155-3.896,4.804c-0.16-0.074-0.25-0.274-0.298-0.543
		c-0.178-0.994,0.37-3.163,1.474-5.528c1.104-2.367,2.419-4.199,3.296-4.7l0.569-1.221c-1-0.468-3.137,1.995-4.771,5.498
		c-1.634,3.504-2.146,6.722-1.145,7.189l21.627,5.672c0.502,0.233,1.476-0.795,2.176-2.297
		C25.017,17.879,25.177,16.472,24.677,16.239z M14.345,14.732c-0.933,2.002-2.096,3.438-2.597,3.203l-4.601-1.122
		c0.811-0.818,1.804-2.345,2.667-4.195c0.862-1.85,1.394-3.593,1.499-4.739l3.816,2.805C15.63,10.917,15.278,12.73,14.345,14.732z
		 M22.05,18.323c-0.584,1.251-1.26,2.171-1.51,2.054l-3.578-0.871c0.645-0.504,1.355-1.463,1.915-2.662
		c0.56-1.197,0.837-2.361,0.81-3.18l2.967,2.182C22.903,15.963,22.633,17.071,22.05,18.323z"/>
</g>
<g>
</g>
<g>
</g>
<g>
</g>
<g>
</g>
<g>
</g>
<g>
</g>
<g>
</g>
<g>
</g>
<g>
</g>
<g>
</g>
<g>
</g>
<g>
</g>
<g>
</g>
<g>
</g>
<g>
</g>
</svg>
